<?xml version="1.0" encoding="UTF-8"?>
<svg id="Layer_1" data-name="Layer 1" xmlns="http://www.w3.org/2000/svg" viewBox="0 0 283.46 283.46">
  <defs>
    <style>
      .cls-1 {
        fill: #fff;
      }

      .cls-2 {
        stroke: #000;
        stroke-miterlimit: 10;
      }
    </style>
  </defs>
  <g>
    <path d="M149.28,144.18c-.61,.12-1.03,.06-1.27-.18L64.79,43.24c-3.86-4.7-7.39-7.99-10.58-9.86-3.2-1.87-6.36-2.8-9.5-2.8-.36,0-.54-.36-.54-1.09s.18-1.09,.54-1.09l6.69,.18c1.45,.12,3.44,.18,5.97,.18s4.82-.06,6.51-.18c1.69-.12,3.01-.18,3.98-.18,.84,0,1.54,.21,2.08,.63,.54,.42,1.18,1.3,1.9,2.62,1.45,2.17,2.95,4.22,4.52,6.15l72.36,88.82,1.45,17c0,.24-.3,.42-.9,.54ZM59.01,32.56l4.16,.36V121.75c0,6.27,1.11,10.76,3.35,13.48,2.23,2.71,5.82,4.07,10.76,4.07,.36,0,.54,.36,.54,1.09s-.18,1.09-.54,1.09c-3.02,0-5.31-.06-6.87-.18l-9.04-.18-9.23,.18c-1.69,.12-4.16,.18-7.42,.18-.24,0-.36-.36-.36-1.09s.12-1.09,.36-1.09c5.18,0,8.86-1.36,11.03-4.07,2.17-2.71,3.26-7.2,3.26-13.48V32.56Zm91.17,111.07l-4.16-5.61V48.3c0-6.27-1.06-10.79-3.17-13.57-2.11-2.77-5.64-4.16-10.58-4.16-.24,0-.36-.36-.36-1.09s.12-1.09,.36-1.09l7.05,.18c3.62,.24,6.57,.36,8.86,.36,2.17,0,5.18-.12,9.04-.36l7.42-.18c.36,0,.54,.36,.54,1.09s-.18,1.09-.54,1.09c-5.07,0-8.75,1.39-11.04,4.16-2.29,2.78-3.44,7.3-3.44,13.57v95.33Z"/>
    <path d="M198.95,131.69c5.18,4.34,7.78,10.13,7.78,17.37,0,6.39-1.87,12.21-5.61,17.46-3.74,5.25-8.77,9.41-15.1,12.48-6.33,3.08-13.12,4.61-20.35,4.61-.72,0-3.44-.18-8.14-.54v41.06c0,3.74,.36,6.45,1.09,8.14,.72,1.69,2.14,2.83,4.25,3.44,2.11,.6,5.46,.9,10.04,.9,.36,0,.54,.36,.54,1.09s-.18,1.08-.54,1.08c-3.74,0-6.69-.06-8.86-.18l-12.48-.18-12.3,.18c-2.17,.12-5.25,.18-9.23,.18-.24,0-.36-.36-.36-1.08s.12-1.09,.36-1.09c4.58,0,7.96-.33,10.13-1,2.17-.66,3.68-1.84,4.52-3.53,.84-1.69,1.27-4.34,1.27-7.96v-83.76c0-3.62-.39-6.27-1.18-7.96-.79-1.69-2.23-2.86-4.34-3.53-2.11-.66-5.46-.99-10.04-.99-.36,0-.54-.36-.54-1.09s.18-1.09,.54-1.09l8.86,.18c5.06,.24,9.16,.36,12.3,.36,2.65,0,5.12-.06,7.42-.18,2.29-.12,4.22-.24,5.79-.36,4.58-.36,8.62-.54,12.12-.54,9.53,0,16.88,2.17,22.07,6.51Zm-10.76,2.35c-4.16-4.1-10.22-6.15-18.18-6.15-4.7,0-7.96,.85-9.77,2.53-1.81,1.69-2.71,5.13-2.71,10.31v37.99c2.89,.48,6.45,.72,10.67,.72,9.41,0,16.13-2.05,20.17-6.15,4.04-4.1,6.06-10.43,6.06-19,0-9.41-2.08-16.16-6.24-20.26Zm17,89.27c-8.5-10.31-18.72-24.51-30.66-42.6l10.13-3.08c10.49,15.08,19.27,26.8,26.32,35.19,7.05,8.38,13.3,14.44,18.72,18.18,5.43,3.74,10.73,5.61,15.92,5.61,.36,0,.54,.36,.54,1.09s-.18,1.08-.54,1.08h-23.16c-3.02,0-8.77-5.16-17.28-15.47Z"/>
    <g>
      <rect class="cls-1" x="124.95" y="116.52" width="59.94" height="30.41" transform="translate(-47.77 148.13) rotate(-45)"/>
      <rect class="cls-1" x="169.84" y="103.03" width="29.97" height="30.41" transform="translate(-29.47 165.32) rotate(-45)"/>
      <rect class="cls-1" x="117.15" y="96.83" width="56.14" height="23.8" transform="translate(-34.35 134.54) rotate(-45)"/>
    </g>
  </g>
  <line class="cls-2" x1="75.88" y1="202.08" x2="221.8" y2="56.16"/>
</svg>